<?xml version="1.0" encoding="UTF-8"?>
<svg width="32" height="32" viewBox="0 0 32 32" fill="none" xmlns="http://www.w3.org/2000/svg">
  <!-- Robot Body -->
  <rect x="8" y="12" width="16" height="12" rx="2" fill="#EC4899"/>
  <rect x="8" y="12" width="16" height="12" rx="2" fill="url(#paint0_linear)" fill-opacity="0.8"/>
  
  <!-- Robot Head -->
  <rect x="10" y="6" width="12" height="8" rx="2" fill="#EC4899"/>
  <rect x="10" y="6" width="12" height="8" rx="2" fill="url(#paint1_linear)" fill-opacity="0.8"/>
  
  <!-- Eyes -->
  <circle cx="14" cy="10" r="1.5" fill="#FFFFFF"/>
  <circle cx="18" cy="10" r="1.5" fill="#FFFFFF"/>
  
  <!-- Antenna -->
  <rect x="15" y="4" width="2" height="2" rx="1" fill="#EC4899"/>
  <rect x="15" y="4" width="2" height="2" rx="1" fill="url(#paint2_linear)" fill-opacity="0.8"/>
  
  <!-- Arms -->
  <rect x="6" y="14" width="2" height="6" rx="1" fill="#EC4899"/>
  <rect x="24" y="14" width="2" height="6" rx="1" fill="#EC4899"/>
  
  <!-- Legs -->
  <rect x="10" y="24" width="3" height="4" rx="1" fill="#EC4899"/>
  <rect x="19" y="24" width="3" height="4" rx="1" fill="#EC4899"/>
  
  <!-- Gradients -->
  <defs>
    <linearGradient id="paint0_linear" x1="8" y1="12" x2="24" y2="24" gradientUnits="userSpaceOnUse">
      <stop stop-color="#EC4899"/>
      <stop offset="1" stop-color="#8B5CF6"/>
    </linearGradient>
    <linearGradient id="paint1_linear" x1="10" y1="6" x2="22" y2="14" gradientUnits="userSpaceOnUse">
      <stop stop-color="#EC4899"/>
      <stop offset="1" stop-color="#8B5CF6"/>
    </linearGradient>
    <linearGradient id="paint2_linear" x1="15" y1="4" x2="17" y2="6" gradientUnits="userSpaceOnUse">
      <stop stop-color="#EC4899"/>
      <stop offset="1" stop-color="#8B5CF6"/>
    </linearGradient>
  </defs>
</svg> 